<?xml version="1.0" encoding="utf-8"?>
<!-- Svg Vector Icons : http://www.onlinewebfonts.com/icon -->
<!DOCTYPE svg PUBLIC "-//W3C//DTD SVG 1.1//EN" "http://www.w3.org/Graphics/SVG/1.1/DTD/svg11.dtd">
<svg version="1.1" xmlns="http://www.w3.org/2000/svg" xmlns:xlink="http://www.w3.org/1999/xlink" x="0px" y="0px" viewBox="0 0 1000 1000" enable-background="new 0 0 1000 1000" xml:space="preserve">
<metadata> Svg Vector Icons : http://www.onlinewebfonts.com/icon </metadata>
<g><path d="M751.4,265.8C751.4,124.6,636.8,10,495.6,10c-141.3,0-256,114.6-256,255.8c0,141.3,114.7,255.9,256,255.9C636.8,521.6,751.4,407,751.4,265.8z"/><path d="M500,495.4c-226.7,0-410.6,183.8-410.6,410.5V990h821.2v-84.1C910.6,679.3,726.7,495.4,500,495.4z M500,972.6L384.8,858l89.5-209.4c-29.1-30.2-49.8-84.9-49.8-84.9s67.2-67.6,148.5-0.5l-0.2,3.1c0,0-18.9,50.8-47.3,80.2L615.2,858L500,972.6z"/></g>
</svg>